<svg xmlns="http://www.w3.org/2000/svg" xmlns:xlink="http://www.w3.org/1999/xlink" viewBox="0 0 602.44 540"><defs><style>.cls-1{fill:url(#linear-gradient);}.cls-2{fill:#fff;}</style><linearGradient id="linear-gradient" y1="270" x2="602.44" y2="270" gradientUnits="userSpaceOnUse"><stop offset="0" stop-color="#4b66b0"/><stop offset="0.5" stop-color="#1fa2ce"/><stop offset="1" stop-color="#55c0a4"/></linearGradient></defs><g id="Layer_2" data-name="Layer 2"><g id="Layer_1-2" data-name="Layer 1"><g id="square_logo" data-name="square logo"><rect class="cls-1" width="602.44" height="540"/><path class="cls-2" d="M197.91,387.19v.16l-5.24,36.52a5.45,5.45,0,0,1-1.56,3.54,5.38,5.38,0,0,1-3.49,1h-3a4.15,4.15,0,0,1-3-1A7.07,7.07,0,0,1,180,424l-4.43-18.46q-.21-.6-.33-.63c-.18,0-.31.21-.41.63L170.41,424a7.07,7.07,0,0,1-1.67,3.43,4.13,4.13,0,0,1-3,1h-3a5.34,5.34,0,0,1-3.47-1,5.4,5.4,0,0,1-1.55-3.54l-5.28-36.52v-.16a.71.71,0,0,1,.29-.58,1.09,1.09,0,0,1,.67-.21h5.93a.92.92,0,0,1,.64.27,1.07,1.07,0,0,1,.31.74l4,33.4c.05.57.15.85.3.85a.11.11,0,0,0,.09,0,.48.48,0,0,0,.09-.13.75.75,0,0,0,0-.16c0-.05,0-.14,0-.24s0-.2.06-.28l4.8-19.64a3.31,3.31,0,0,1,1.07-1.84,3.75,3.75,0,0,1,2.46-.67h3.85a3.75,3.75,0,0,1,2.46.67,3.35,3.35,0,0,1,1.06,1.84l4.84,19.64c0,.06,0,.12,0,.19s0,.14,0,.19a.53.53,0,0,0,0,.17.83.83,0,0,0,0,.12.69.69,0,0,0,0,.1s0,.06,0,.07h.08c.13,0,.22-.28.28-.85l4-33.4a1.11,1.11,0,0,1,.3-.74.86.86,0,0,1,.63-.27H197a1.13,1.13,0,0,1,.67.21A.7.7,0,0,1,197.91,387.19Z"/><path class="cls-2" d="M227.9,425.46a1.3,1.3,0,0,1-.3,1,3,3,0,0,1-1.23.55,44.63,44.63,0,0,1-11.22,1.45q-6.65,0-10-3.69t-3.38-10.35v-4.29q0-6.68,3.38-10.36t10-3.68a44.62,44.62,0,0,1,11.22,1.44,3,3,0,0,1,1.23.55,1.31,1.31,0,0,1,.3,1ZM220.5,422V402.46a27.76,27.76,0,0,0-5.35-.39,6.73,6.73,0,0,0-3,.59,4.12,4.12,0,0,0-1.86,1.71,8.12,8.12,0,0,0-.92,2.5,16.88,16.88,0,0,0-.27,3.21v4.29a16.88,16.88,0,0,0,.27,3.21,8.06,8.06,0,0,0,.92,2.49,4.12,4.12,0,0,0,1.86,1.71,6.73,6.73,0,0,0,3,.59A28.77,28.77,0,0,0,220.5,422Z"/><path class="cls-2" d="M249.65,401.23c0,.67-.55,1-1.64,1a30,30,0,0,0-5.49.38v24.17a1.28,1.28,0,0,1-.29.84,1,1,0,0,1-.75.34h-5.22a1,1,0,0,1-.79-.36,1.16,1.16,0,0,1-.33-.82V399.32c0-.79.5-1.34,1.51-1.67a31.67,31.67,0,0,1,5.24-1.24A42.7,42.7,0,0,1,248,396c1.09,0,1.64.31,1.64.93Z"/><path class="cls-2" d="M280.43,413.36c0,.94-.37,1.42-1.12,1.42H261.09v.16a10,10,0,0,0,.3,2.5,7.76,7.76,0,0,0,1,2.25,4.8,4.8,0,0,0,2.09,1.72,7.88,7.88,0,0,0,3.29.63q4.13,0,10.3-.57h.16a1.14,1.14,0,0,1,.73.23.74.74,0,0,1,.28.61V426a1.78,1.78,0,0,1-.23,1,1.38,1.38,0,0,1-.94.44,49,49,0,0,1-5,.73q-2.19.19-5.82.2a16.48,16.48,0,0,1-3.57-.39,13.46,13.46,0,0,1-3.6-1.39,12.15,12.15,0,0,1-3.23-2.54,11.86,11.86,0,0,1-2.26-4,16.8,16.8,0,0,1-.89-5.68v-4.13q0-6.58,3.54-10.39t9.9-3.81q6.3,0,9.8,3.89t3.5,10.31ZM273,409.5v-.22a7.41,7.41,0,0,0-1.61-5,5.42,5.42,0,0,0-4.26-1.83,5.57,5.57,0,0,0-4.33,1.82,7.25,7.25,0,0,0-1.65,5.06v.22Z"/><path class="cls-2" d="M312.09,426.25a1.06,1.06,0,0,1-.3.82,2.51,2.51,0,0,1-.93.46,30.54,30.54,0,0,1-3.52.58,45,45,0,0,1-5.33.3,21.44,21.44,0,0,1-3-.22,17.45,17.45,0,0,1-3.07-.77,15,15,0,0,1-3-1.39,12.64,12.64,0,0,1-2.64-2.2,13.15,13.15,0,0,1-2.16-3.09,17.06,17.06,0,0,1-1.42-4.15,24.2,24.2,0,0,1-.54-5.28v-8.23a22.92,22.92,0,0,1,1-7.15,14.69,14.69,0,0,1,2.59-5,13.22,13.22,0,0,1,3.74-3,15.29,15.29,0,0,1,4.21-1.58A21.73,21.73,0,0,1,302,386a42.4,42.4,0,0,1,5.31.31,31.32,31.32,0,0,1,3.54.59,2.51,2.51,0,0,1,.93.46,1.07,1.07,0,0,1,.3.82v3.75c0,.78-.37,1.17-1.12,1.17h-.11q-5.25-.44-8.74-.44a7.57,7.57,0,0,0-6,2.42q-2.14,2.41-2.14,8v8.23q0,10.45,8.11,10.46,3.17,0,8.74-.47H311c.75,0,1.12.4,1.12,1.18Z"/><path class="cls-2" d="M344,413.36c0,.94-.37,1.42-1.12,1.42H324.68v.16a10,10,0,0,0,.3,2.5,7.76,7.76,0,0,0,1,2.25,4.8,4.8,0,0,0,2.09,1.72,7.88,7.88,0,0,0,3.29.63q4.13,0,10.3-.57h.16a1.14,1.14,0,0,1,.73.23.74.74,0,0,1,.28.61V426a1.78,1.78,0,0,1-.23,1,1.38,1.38,0,0,1-.94.44,49,49,0,0,1-5,.73q-2.19.19-5.82.2a16.48,16.48,0,0,1-3.57-.39,13.46,13.46,0,0,1-3.6-1.39,12.15,12.15,0,0,1-3.23-2.54,11.86,11.86,0,0,1-2.26-4,16.8,16.8,0,0,1-.89-5.68v-4.13q0-6.58,3.54-10.39t9.9-3.81q6.3,0,9.8,3.89t3.5,10.31Zm-7.43-3.86v-.22a7.41,7.41,0,0,0-1.61-5,5.42,5.42,0,0,0-4.26-1.83,5.57,5.57,0,0,0-4.33,1.82,7.26,7.26,0,0,0-1.66,5.06v.22Z"/><path class="cls-2" d="M375.89,426.79a1.23,1.23,0,0,1-.29.84,1,1,0,0,1-.77.34h-5.24a1,1,0,0,1-.77-.34,1.24,1.24,0,0,1-.3-.84V407.43a15.32,15.32,0,0,0-.08-1.61,6.88,6.88,0,0,0-.33-1.41,3.4,3.4,0,0,0-.66-1.17,2.82,2.82,0,0,0-1.1-.77,4.38,4.38,0,0,0-1.65-.29h-3.47a4.22,4.22,0,0,0-2,.41,2.74,2.74,0,0,0-1.16,1.2,6.54,6.54,0,0,0-.53,1.64,11.65,11.65,0,0,0-.15,2v19.36a1.24,1.24,0,0,1-.3.84,1,1,0,0,1-.76.34h-5.25a1,1,0,0,1-.76-.34,1.24,1.24,0,0,1-.3-.84V407.43a11.57,11.57,0,0,1,2.92-8.29q2.92-3.11,8.25-3.1h3.47c3.57,0,6.32,1,8.27,3.1a11.57,11.57,0,0,1,2.92,8.29Z"/><path class="cls-2" d="M399,427c0,.56-.35.9-1.06,1a41.76,41.76,0,0,1-6.56.44q-4.43,0-6.62-1.88t-2.2-6.51V391.83c0-.62.37-1,1.12-1.12l5.19-.9h.16a.88.88,0,0,1,.66.35,1.19,1.19,0,0,1,.3.77v5.49h7.89a1.06,1.06,0,0,1,.79.33,1.07,1.07,0,0,1,.33.79v3.3a1.09,1.09,0,0,1-.33.8,1,1,0,0,1-.79.32H390V420a2.43,2.43,0,0,0,.75,2.12,5.13,5.13,0,0,0,2.66.5h4.43c.78,0,1.17.28,1.17.85Z"/><path class="cls-2" d="M418.56,401.23c0,.67-.54,1-1.64,1a30.11,30.11,0,0,0-5.49.38v24.17a1.27,1.27,0,0,1-.28.84,1,1,0,0,1-.76.34h-5.21a1,1,0,0,1-.79-.36,1.16,1.16,0,0,1-.33-.82V399.32c0-.79.5-1.34,1.5-1.67a31.67,31.67,0,0,1,5.24-1.24,42.89,42.89,0,0,1,6.12-.37c1.1,0,1.64.31,1.64.93Z"/><path class="cls-2" d="M431.29,391.09a1.11,1.11,0,0,1-1.12,1.12h-5.44a1.19,1.19,0,0,1-.81-.32,1.05,1.05,0,0,1-.36-.8v-4.91a1.05,1.05,0,0,1,.36-.8,1.19,1.19,0,0,1,.81-.32h5.44a1.11,1.11,0,0,1,1.12,1.12Zm-.16,35.7a1.16,1.16,0,0,1-.33.82,1,1,0,0,1-.79.36h-5.17a1,1,0,0,1-.79-.36,1.16,1.16,0,0,1-.33-.82V397.54a1.13,1.13,0,0,1,1.12-1.12H430a1.13,1.13,0,0,1,1.12,1.12Z"/><path class="cls-2" d="M458.55,426.25a1.21,1.21,0,0,1-1.17,1.45,30.3,30.3,0,0,1-7.22.71,14,14,0,0,1-6.54-1.47,10.77,10.77,0,0,1-4.52-4.57,15.59,15.59,0,0,1-1.69-7.54v-5.22a15.59,15.59,0,0,1,1.69-7.54,10.77,10.77,0,0,1,4.52-4.57,14.13,14.13,0,0,1,6.54-1.46,29.79,29.79,0,0,1,7.22.71,1.2,1.2,0,0,1,1.17,1.45v3.66a.73.73,0,0,1-.29.6,1.18,1.18,0,0,1-.72.21h-.16a61.54,61.54,0,0,0-7.22-.38,5.64,5.64,0,0,0-2,.34,5.12,5.12,0,0,0-1.7,1.12,5.46,5.46,0,0,0-1.25,2.28,12.23,12.23,0,0,0-.47,3.58v5.22a12.19,12.19,0,0,0,.47,3.58,5.46,5.46,0,0,0,1.25,2.28,5,5,0,0,0,1.7,1.12,5.42,5.42,0,0,0,2,.34,61.54,61.54,0,0,0,7.22-.38h.16a1.12,1.12,0,0,1,.72.22.7.7,0,0,1,.29.6Z"/><path class="cls-2" d="M75.81,457a7.64,7.64,0,0,1,7.53,4.92H80.8a5.12,5.12,0,0,0-5-3.06c-3.4,0-6,2.47-6,6.46s2.55,6.44,6,6.44a5.13,5.13,0,0,0,5-3h2.54a7.64,7.64,0,0,1-7.53,4.88,8.3,8.3,0,0,1,0-16.6Z"/><path class="cls-2" d="M104.57,458.9H98v5.43h5.92v1.75H98v5.6h6.62v1.75H95.82V457.15h8.75Z"/><path class="cls-2" d="M129.9,457.15v16.28h-2.13l-8.53-12.94v12.94h-2.12V457.15h2.12l8.53,12.92V457.15Z"/><path class="cls-2" d="M141.84,457.17h11v1.73h-4.43v14.53H146.3V458.9h-4.46Z"/><path class="cls-2" d="M173.54,458.9h-6.63v5.43h5.93v1.75h-5.93v5.6h6.63v1.75h-8.75V457.15h8.75Z"/><path class="cls-2" d="M191.33,457.17c3.83,0,5.64,2.13,5.64,4.79a4.58,4.58,0,0,1-3.86,4.66l4.08,6.81h-2.55l-3.87-6.65h-2.56v6.65h-2.12V457.17Zm0,1.75h-3.12v6.16h3.12c2.4,0,3.45-1.31,3.45-3.12S193.76,458.92,191.33,458.92Z"/><path class="cls-2" d="M232.52,473.59a8.3,8.3,0,1,1,8.16-8.3A8,8,0,0,1,232.52,473.59Zm0-1.84c3.43,0,6-2.5,6-6.46s-2.56-6.46-6-6.46-6,2.47-6,6.46S229.09,471.75,232.52,471.75Z"/><path class="cls-2" d="M252.82,457.17H262v1.73h-7.06v5.48h5.73v1.73h-5.73v7.32h-2.12Z"/><path class="cls-2" d="M289.46,457.17h2.12v16.26h-2.12Z"/><path class="cls-2" d="M317.3,457.15v16.28h-2.12l-8.53-12.94v12.94h-2.13V457.15h2.13l8.53,12.92V457.15Z"/><path class="cls-2" d="M343,457.15v16.28h-2.12l-8.54-12.94v12.94h-2.12V457.15h2.12l8.54,12.92V457.15Z"/><path class="cls-2" d="M363.34,473.59a8.3,8.3,0,1,1,8.16-8.3A8,8,0,0,1,363.34,473.59Zm0-1.84c3.43,0,6-2.5,6-6.46s-2.57-6.46-6-6.46-6,2.47-6,6.46S359.92,471.75,363.34,471.75Z"/><path class="cls-2" d="M394.83,457.17h2.24l-6.13,16.26h-2.45l-6.13-16.26h2.26l5.1,14Z"/><path class="cls-2" d="M418.34,469.81h-7.09l-1.3,3.62h-2.24l5.87-16.16H416l5.86,16.16h-2.24Zm-3.54-9.93-2.94,8.21h5.88Z"/><path class="cls-2" d="M432.78,457.17h11v1.73h-4.43v14.53h-2.13V458.9h-4.45Z"/><path class="cls-2" d="M455.73,457.17h2.12v16.26h-2.12Z"/><path class="cls-2" d="M478.17,473.59a8.3,8.3,0,1,1,8.16-8.3A8,8,0,0,1,478.17,473.59Zm0-1.84c3.42,0,6-2.5,6-6.46s-2.57-6.46-6-6.46-6,2.47-6,6.46S474.74,471.75,478.17,471.75Z"/><path class="cls-2" d="M511.24,457.15v16.28h-2.12l-8.54-12.94v12.94h-2.12V457.15h2.12l8.54,12.92V457.15Z"/><path class="cls-2" d="M529.34,473.59c-3.27,0-5.57-1.82-5.62-4.5H526c.14,1.35,1.1,2.7,3.36,2.7,2,0,3.26-1.16,3.26-2.7,0-4.38-8.79-1.59-8.79-7.62,0-2.69,2.17-4.5,5.39-4.5s5.13,1.7,5.39,4.17h-2.34a2.94,2.94,0,0,0-3.14-2.36c-1.75,0-3.13.87-3.13,2.62,0,4.19,8.77,1.58,8.77,7.6C534.75,471.31,532.86,473.59,529.34,473.59Z"/><path class="cls-2" d="M423.51,151.6a9.27,9.27,0,0,0-6.37,11.45,121.17,121.17,0,1,1-36.76-57.87,9.26,9.26,0,0,0,12.19-13.94,139.54,139.54,0,0,0-91.89-34.5c-77,0-139.62,62.64-139.62,139.62S223.7,336,300.68,336,440.3,273.35,440.3,196.36A139.78,139.78,0,0,0,435,158,9.26,9.26,0,0,0,423.51,151.6Z"/><path class="cls-2" d="M210.53,150.77a9.27,9.27,0,0,0-3.21,12.7l53.79,90.25A9.26,9.26,0,1,0,277,244.23L223.23,154A9.27,9.27,0,0,0,210.53,150.77Z"/><path class="cls-2" d="M446.45,63a9.27,9.27,0,0,0-12.67,3.32L337.65,230.76,291.89,154A9.26,9.26,0,1,0,276,163.47l51.24,86a12.24,12.24,0,0,0,10.48,6h.05a12.26,12.26,0,0,0,10.48-6.05L449.77,75.63A9.26,9.26,0,0,0,446.45,63Z"/></g></g></g></svg>